<?xml version="1.0" encoding="UTF-8"?>
<svg width="35px" height="35px" viewBox="0 0 35 35" version="1.1" xmlns="http://www.w3.org/2000/svg" xmlns:xlink="http://www.w3.org/1999/xlink">
    <!-- Generator: Sketch 46.2 (44496) - http://www.bohemiancoding.com/sketch -->
    <title>facebook</title>
    <desc>Created with Sketch.</desc>
    <defs></defs>
    <g id="Page-1" stroke="none" stroke-width="1" fill="none" fill-rule="evenodd">
        <g id="Website-desktop" transform="translate(-468.000000, -2614.000000)" fill="#73CBFF">
            <path d="M503,2631.44899 C503,2641.08667 495.165168,2648.89886 485.500436,2648.89886 C475.834832,2648.89886 468,2641.08667 468,2631.44899 C468,2621.81219 475.834832,2614 485.500436,2614 C495.165168,2614 503,2621.81219 503,2631.44899 Z M488.553466,2622.74579 C488.046952,2622.67104 487.335567,2622.63366 486.417565,2622.63366 C485.33741,2622.63366 484.472588,2622.95268 483.8231,2623.59073 C483.173612,2624.22965 482.848432,2625.12761 482.848432,2626.28549 L482.848432,2628.32134 L480.460582,2628.32134 L480.460582,2631.08651 L482.848432,2631.08651 L482.848432,2638.17459 L485.714898,2638.17459 L485.714898,2631.08651 L488.094029,2631.08651 L488.459312,2628.32134 L485.714898,2628.32134 L485.714898,2626.5567 C485.714898,2626.10816 485.809052,2625.77175 485.995616,2625.54747 C486.183052,2625.32407 486.545719,2625.21193 487.082746,2625.21193 L488.553466,2625.21193 L488.553466,2622.74579 Z" id="facebook"></path>
        </g>
    </g>
</svg>