<?xml version="1.0" encoding="UTF-8"?>
<svg width="35px" height="35px" viewBox="0 0 35 35" version="1.1" xmlns="http://www.w3.org/2000/svg" xmlns:xlink="http://www.w3.org/1999/xlink">
    <!-- Generator: Sketch 46.2 (44496) - http://www.bohemiancoding.com/sketch -->
    <title>instagram</title>
    <desc>Created with Sketch.</desc>
    <defs></defs>
    <g id="Page-1" stroke="none" stroke-width="1" fill="none" fill-rule="evenodd">
        <g id="Website-desktop" transform="translate(-570.000000, -2614.000000)" fill="#73CBFF">
            <path d="M587.500436,2648.89886 C577.834832,2648.89886 570,2641.08667 570,2631.44899 C570,2621.81219 577.834832,2614 587.500436,2614 C597.165168,2614 605,2621.81219 605,2631.44899 C605,2641.08667 597.165168,2648.89886 587.500436,2648.89886 Z M594.862754,2626.11337 C594.862754,2625.59702 594.677062,2625.15369 594.306548,2624.78425 C593.935163,2624.41481 593.491419,2624.22965 592.973572,2624.22965 L582.026428,2624.22965 C581.508581,2624.22965 581.063965,2624.41481 580.693452,2624.78425 C580.322938,2625.15369 580.137246,2625.59702 580.137246,2626.11337 L580.137246,2637.02888 C580.137246,2637.54523 580.322938,2637.9877 580.693452,2638.35801 C581.063965,2638.72745 581.508581,2638.91261 582.026428,2638.91261 L592.973572,2638.91261 C593.491419,2638.91261 593.935163,2638.72745 594.306548,2638.35801 C594.677062,2637.9877 594.862754,2637.54523 594.862754,2637.02888 L594.862754,2626.11337 Z M593.194137,2636.63771 C593.194137,2636.80287 593.136598,2636.94196 593.021521,2637.05322 C592.906444,2637.16449 592.769572,2637.22099 592.610033,2637.22099 L582.361198,2637.22099 C582.195556,2637.22099 582.056069,2637.16449 581.944479,2637.05322 C581.832017,2636.94196 581.777094,2636.80287 581.777094,2636.63771 L581.777094,2630.44324 L583.128378,2630.44324 C583.000224,2630.84485 582.936583,2631.2621 582.936583,2631.69587 C582.936583,2632.91981 583.383814,2633.96294 584.279149,2634.82614 C585.173612,2635.6902 586.25028,2636.12136 587.510026,2636.12136 C588.339976,2636.12136 589.107156,2635.92403 589.810696,2635.52851 C590.513363,2635.13299 591.069569,2634.59578 591.478442,2633.91774 C591.887314,2633.23971 592.092186,2632.49821 592.092186,2631.69587 C592.092186,2631.2621 592.027673,2630.84485 591.900391,2630.44324 L593.194137,2630.44324 L593.194137,2636.63771 Z M589.60408,2633.56481 C589.025207,2634.12202 588.32777,2634.40019 587.510026,2634.40019 C586.698383,2634.40019 586.00269,2634.12202 585.424689,2633.56481 C584.845817,2633.00674 584.55638,2632.33305 584.55638,2631.54288 C584.55638,2630.7527 584.845817,2630.07815 585.424689,2629.52094 C586.00269,2628.96286 586.698383,2628.68469 587.510026,2628.68469 C588.32777,2628.68469 589.025207,2628.96286 589.60408,2629.52094 C590.182953,2630.07815 590.471517,2630.7527 590.471517,2631.54288 C590.471517,2632.33305 590.182953,2633.00674 589.60408,2633.56481 Z M593.194137,2628.10141 C593.194137,2628.2857 593.130495,2628.44217 593.003213,2628.56995 C592.875059,2628.69686 592.718136,2628.76119 592.533315,2628.76119 L590.864697,2628.76119 C590.679005,2628.76119 590.522953,2628.69686 590.394799,2628.56995 C590.267517,2628.44217 590.203876,2628.2857 590.203876,2628.10141 L590.203876,2626.52454 C590.203876,2626.34547 590.267517,2626.19074 590.394799,2626.06035 C590.522953,2625.92996 590.679005,2625.86476 590.864697,2625.86476 L592.533315,2625.86476 C592.718136,2625.86476 592.875059,2625.92996 593.003213,2626.06035 C593.130495,2626.19074 593.194137,2626.34547 593.194137,2626.52454 L593.194137,2628.10141 Z" id="instagram"></path>
        </g>
    </g>
</svg>