<?xml version="1.0" encoding="UTF-8"?>
<svg width="255px" height="136px" viewBox="0 0 255 136" version="1.1" xmlns="http://www.w3.org/2000/svg" xmlns:xlink="http://www.w3.org/1999/xlink">
    <!-- Generator: Sketch 46.2 (44496) - http://www.bohemiancoding.com/sketch -->
    <title>Group</title>
    <desc>Created with Sketch.</desc>
    <defs></defs>
    <g id="Page-1" stroke="none" stroke-width="1" fill="none" fill-rule="evenodd">
        <g id="Website-desktop" transform="translate(-1130.000000, -56.000000)">
            <g id="Group" transform="translate(1130.000000, 56.000000)">
                <path d="M7.05520942,23.6754536 L0,23.6754536 L0,0.384115029 L12.4339334,0.384115029 C17.882511,0.384115029 20.8163605,4.01574803 20.8163605,8.38069154 C20.8163605,12.7107155 17.882511,16.3423485 12.4339334,16.3423485 L7.05520942,16.3423485 L7.05520942,23.6754536 Z M11.5258372,10.196508 C12.7133477,10.196508 13.6563707,9.60287573 13.6563707,8.38069154 C13.6563707,7.12358781 12.7133477,6.52995549 11.5258372,6.52995549 L7.05520942,6.52995549 L7.05520942,10.196508 L11.5258372,10.196508 Z M43.9728152,23.6754536 L35.9396559,23.6754536 L32.7263922,16.3423485 L30.1767373,16.3423485 L30.1767373,23.6754536 L23.1215279,23.6754536 L23.1215279,0.384115029 L35.5554613,0.384115029 C41.0040389,0.384115029 43.9378884,4.01574803 43.9378884,8.38069154 C43.9378884,12.3964396 41.5977942,14.526532 39.7466749,15.4344403 L43.9728152,23.6754536 Z M34.4727312,10.196508 C35.6602417,10.196508 36.7778986,9.63779528 36.7778986,8.345772 C36.7778986,7.08866826 35.6602417,6.52995549 34.4727312,6.52995549 L30.1767373,6.52995549 L30.1767373,10.196508 L34.4727312,10.196508 Z M58.2927947,24.0944882 C51.0978781,24.0944882 45.5445202,19.2057515 45.5445202,12.0472441 C45.5445202,4.88873673 51.0978781,0 58.2927947,0 C65.4877112,0 71.0410691,4.88873673 71.0410691,12.0472441 C71.0410691,19.2057515 65.4877112,24.0944882 58.2927947,24.0944882 Z M58.2927947,17.8788086 C61.6806923,17.8788086 63.8810794,15.2947621 63.8810794,12.0472441 C63.8810794,8.79972612 61.6806923,6.21567956 58.2927947,6.21567956 C54.9048971,6.21567956 52.70451,8.79972612 52.70451,12.0472441 C52.70451,15.2947621 54.9048971,17.8788086 58.2927947,17.8788086 Z M83.9989043,23.6754536 L73.5557972,23.6754536 L73.5557972,0.384115029 L83.9639775,0.384115029 C91.2986011,0.384115029 96.7471787,4.5744608 96.7471787,12.0123245 C96.7471787,19.4501883 91.2986011,23.6754536 83.9989043,23.6754536 Z M83.9639775,17.5296131 C87.4915822,17.5296131 89.5871889,14.9455666 89.5871889,12.0123245 C89.5871889,8.86956522 87.7709964,6.52995549 83.9989043,6.52995549 L80.6110067,6.52995549 L80.6110067,17.5296131 L83.9639775,17.5296131 Z M110.787744,24.0944882 C118.646269,24.0944882 122.278654,19.8692229 122.278654,14.0725779 L122.278654,0.384115029 L115.118665,0.384115029 L115.118665,13.8630606 C115.118665,16.0979117 113.65174,17.8788086 110.787744,17.8788086 C107.888821,17.8788086 106.421897,16.0979117 106.421897,13.8630606 L106.421897,0.384115029 L99.2619068,0.384115029 L99.2619068,14.1074974 C99.2619068,19.8692229 102.929219,24.0944882 110.787744,24.0944882 Z M137.611511,24.0944882 C143.723697,24.0944882 146.83218,20.3930161 148.194325,17.2851763 L142.117065,14.4916125 C141.52331,16.307429 139.707117,17.8788086 137.611511,17.8788086 C134.223613,17.8788086 131.953372,15.2947621 131.953372,12.0472441 C131.953372,8.79972612 134.223613,6.21567956 137.611511,6.21567956 C139.707117,6.21567956 141.52331,7.78705923 142.117065,9.60287573 L148.194325,6.77439233 C146.797253,3.56179391 143.723697,0 137.611511,0 C130.311814,0 124.793383,4.85381719 124.793383,12.0472441 C124.793383,19.2057515 130.311814,24.0944882 137.611511,24.0944882 Z M162.444451,23.6754536 L162.444451,6.52995549 L168.661417,6.52995549 L168.661417,0.384115029 L149.137348,0.384115029 L149.137348,6.52995549 L155.389241,6.52995549 L155.389241,23.6754536 L162.444451,23.6754536 Z" id="PRODUCT" fill="#0D3343"></path>
                <path d="M13.3430233,51.2007874 L6.26876946,51.2007874 L6.26876946,34.2030953 L0,34.2030953 L0,28.1102362 L19.5767717,28.1102362 L19.5767717,34.2030953 L13.3430233,34.2030953 L13.3430233,51.2007874 Z M43.6012177,51.2007874 L35.5813953,51.2007874 L34.7408899,48.500543 L26.3358359,48.500543 L25.4953305,51.2007874 L17.4755081,51.2007874 L26.0906885,28.1102362 L34.9860374,28.1102362 L43.6012177,51.2007874 Z M32.8497528,42.407684 L30.5383629,34.9647027 L28.2269731,42.407684 L32.8497528,42.407684 Z M67.3454953,51.2007874 L67.3454953,28.1102362 L60.2712415,28.1102362 L60.2712415,39.0496878 L52.146356,28.1102362 L44.8619758,28.1102362 L44.8619758,51.2007874 L51.9362296,51.2007874 L51.9362296,39.4997285 L60.55141,51.2007874 L67.3454953,51.2007874 Z M93.3661417,51.2007874 L84.1556034,38.8419766 L92.9809101,28.1102362 L84.3307087,28.1102362 L78.2020234,36.7648656 L78.2020234,28.1102362 L71.1277696,28.1102362 L71.1277696,51.2007874 L78.2020234,51.2007874 L78.2020234,44.7963617 L79.4978026,43.0654358 L84.7509614,51.2007874 L93.3661417,51.2007874 Z" id="TANK" fill="#0D3343"></path>
                <rect id="Rectangle-5" fill="#0D3343" x="99" y="37" width="38.1496063" height="5.01968504"></rect>
                <rect id="Rectangle-5" fill="#0D3343" x="0" y="130" width="38.1496063" height="5.01968504"></rect>
                <path d="M14.6664379,78.891989 L0,78.891989 L0,55.6006505 L14.1763898,55.6006505 C19.0068634,55.6006505 21.1070693,58.8132489 21.1070693,61.5369736 C21.1070693,64.4352961 19.3919012,66.3907908 17.1166781,66.8796645 C19.6369252,67.2637795 21.5621139,69.5684697 21.5621139,72.5715508 C21.5621139,75.8190688 19.3568977,78.891989 14.6664379,78.891989 Z M12.5312286,64.1908593 C13.2663006,64.1908593 13.9313658,63.6321465 13.9313658,62.7940774 C13.9313658,61.9909278 13.2663006,61.4671345 12.5312286,61.4671345 L7.07069321,61.4671345 L7.07069321,64.1908593 L12.5312286,64.1908593 Z M12.7412491,73.025505 C13.7563487,73.025505 14.3864104,72.4318726 14.3864104,71.5588839 C14.3864104,70.7208148 13.7563487,70.0573434 12.7412491,70.0573434 L7.07069321,70.0573434 L7.07069321,73.025505 L12.7412491,73.025505 Z M35.9485244,79.3110236 C43.8242965,79.3110236 47.4646534,75.0857583 47.4646534,69.2891133 L47.4646534,55.6006505 L40.2889499,55.6006505 L40.2889499,69.079596 C40.2889499,71.3144471 38.8188058,73.0953441 35.9485244,73.0953441 C33.0432395,73.0953441 31.5730954,71.3144471 31.5730954,69.079596 L31.5730954,55.6006505 L24.3973919,55.6006505 L24.3973919,69.3240329 C24.3973919,75.0857583 28.0727522,79.3110236 35.9485244,79.3110236 Z M68.9567605,78.891989 L68.9567605,72.7461486 L58.3157172,72.7461486 L58.3157172,70.1970216 L68.7117364,70.1970216 L68.7117364,64.0511811 L58.3157172,64.0511811 L58.3157172,61.7464909 L68.9567605,61.7464909 L68.9567605,55.6006505 L51.245024,55.6006505 L51.245024,78.891989 L68.9567605,78.891989 Z M94.5792725,78.891989 L94.5792725,55.6006505 L87.5085793,55.6006505 L87.5085793,66.6352277 L79.3877831,55.6006505 L72.1070693,55.6006505 L72.1070693,78.891989 L79.1777625,78.891989 L79.1777625,67.0891818 L87.7886067,78.891989 L94.5792725,78.891989 Z M109.875772,79.3110236 C102.665065,79.3110236 97.0995196,74.4222869 97.0995196,67.2637795 C97.0995196,60.1052722 102.665065,55.2165354 109.875772,55.2165354 C117.086479,55.2165354 122.652025,60.1052722 122.652025,67.2637795 C122.652025,74.4222869 117.086479,79.3110236 109.875772,79.3110236 Z M109.875772,73.0953441 C113.271105,73.0953441 115.476321,70.5112975 115.476321,67.2637795 C115.476321,64.0162616 113.271105,61.432215 109.875772,61.432215 C106.480439,61.432215 104.275223,64.0162616 104.275223,67.2637795 C104.275223,70.5112975 106.480439,73.0953441 109.875772,73.0953441 Z M134.238161,79.3110236 C140.503775,79.3110236 144.319149,76.342862 144.319149,71.2096885 C144.319149,62.5496405 131.332876,64.4352961 131.332876,62.2353646 C131.332876,61.6417323 131.717914,61.1877782 133.118051,61.1877782 C135.323267,61.1877782 137.948524,61.9560082 139.978723,63.4924683 L143.759094,58.498973 C141.098833,56.333961 137.668497,55.251455 133.853123,55.251455 C127.447495,55.251455 124.157172,59.0227662 124.157172,62.9686751 C124.157172,72.1525163 137.178449,69.8827456 137.178449,72.1175967 C137.178449,73.025505 135.918325,73.3747004 134.588195,73.3747004 C131.437886,73.3747004 128.812629,72.0477576 127.062457,70.3716193 L123.387097,75.6095515 C125.87234,77.8444026 129.267673,79.3110236 134.238161,79.3110236 Z M179.147563,78.891989 L171.131778,78.891989 L170.291695,76.1682643 L161.890872,76.1682643 L161.050789,78.891989 L153.035003,78.891989 L161.645848,55.6006505 L170.536719,55.6006505 L179.147563,78.891989 Z M168.40151,70.0224238 L166.091283,62.514721 L163.781057,70.0224238 L168.40151,70.0224238 Z M187.47838,78.891989 L187.47838,55.6006505 L180.407687,55.6006505 L180.407687,78.891989 L187.47838,78.891989 Z M212.1558,78.891989 L204.10501,78.891989 L200.884695,71.5588839 L198.329444,71.5588839 L198.329444,78.891989 L191.258751,78.891989 L191.258751,55.6006505 L203.719973,55.6006505 C209.180508,55.6006505 212.120796,59.2322835 212.120796,63.597227 C212.120796,67.612975 209.775566,69.7430674 207.920384,70.6509757 L212.1558,78.891989 Z M202.634866,65.4130435 C203.824983,65.4130435 204.945093,64.8543307 204.945093,63.5623074 C204.945093,62.3052037 203.824983,61.7464909 202.634866,61.7464909 L198.329444,61.7464909 L198.329444,65.4130435 L202.634866,65.4130435 Z M232.702814,78.891989 L232.702814,72.7461486 L222.061771,72.7461486 L222.061771,70.1970216 L232.45779,70.1970216 L232.45779,64.0511811 L222.061771,64.0511811 L222.061771,61.7464909 L232.702814,61.7464909 L232.702814,55.6006505 L214.991078,55.6006505 L214.991078,78.891989 L232.702814,78.891989 Z M244.919012,79.3110236 C251.184626,79.3110236 255,76.342862 255,71.2096885 C255,62.5496405 242.013727,64.4352961 242.013727,62.2353646 C242.013727,61.6417323 242.398765,61.1877782 243.798902,61.1877782 C246.004118,61.1877782 248.629375,61.9560082 250.659574,63.4924683 L254.439945,58.498973 C251.779684,56.333961 248.349348,55.251455 244.533974,55.251455 C238.128346,55.251455 234.838023,59.0227662 234.838023,62.9686751 C234.838023,72.1525163 247.8593,69.8827456 247.8593,72.1175967 C247.8593,73.025505 246.599176,73.3747004 245.269046,73.3747004 C242.118737,73.3747004 239.49348,72.0477576 237.743308,70.3716193 L234.067948,75.6095515 C236.553191,77.8444026 239.948524,79.3110236 244.919012,79.3110236 Z" id="BUENOS-AIRES" fill="#FFFFFF"></path>
            </g>
        </g>
    </g>
</svg>