<?xml version="1.0" encoding="UTF-8"?>
<svg width="35px" height="35px" viewBox="0 0 35 35" version="1.1" xmlns="http://www.w3.org/2000/svg" xmlns:xlink="http://www.w3.org/1999/xlink">
    <!-- Generator: Sketch 46.2 (44496) - http://www.bohemiancoding.com/sketch -->
    <title>twitter</title>
    <desc>Created with Sketch.</desc>
    <defs></defs>
    <g id="Page-1" stroke="none" stroke-width="1" fill="none" fill-rule="evenodd">
        <g id="Website-desktop" transform="translate(-519.000000, -2614.000000)" fill="#73CBFF">
            <path d="M554,2631.44856 C554,2641.08599 546.164491,2648.89799 536.5,2648.89799 C526.835509,2648.89799 519,2641.08599 519,2631.44856 C519,2621.812 526.835509,2614 536.5,2614 C546.164491,2614 554,2621.812 554,2631.44856 Z M545.305794,2627.14314 C544.695551,2627.40478 544.085309,2627.56907 543.475939,2627.63427 C544.163769,2627.22137 544.630168,2626.63984 544.872522,2625.88707 C544.243101,2626.25998 543.570962,2626.51554 542.855236,2626.65375 C542.225814,2625.98616 541.451679,2625.6515 540.532829,2625.6515 C539.65408,2625.6515 538.904354,2625.96182 538.284522,2626.57899 C537.664691,2627.1979 537.354339,2627.94459 537.354339,2628.8208 C537.354339,2629.05724 537.380492,2629.29889 537.43367,2629.5475 C536.134727,2629.4823 534.915986,2629.15633 533.777448,2628.57133 C532.639783,2627.98545 531.672985,2627.20573 530.87967,2626.23042 C530.591113,2626.72068 530.446398,2627.2544 530.446398,2627.82985 C530.446398,2628.37314 530.574549,2628.8773 530.830851,2629.34149 C531.086281,2629.80567 531.430632,2630.18206 531.863904,2630.46978 C531.352172,2630.44979 530.872696,2630.31679 530.427219,2630.06731 L530.427219,2630.10643 C530.427219,2630.87224 530.667829,2631.54418 531.14992,2632.1231 C531.632012,2632.70203 532.241382,2633.06711 532.975416,2633.21749 C532.699935,2633.28877 532.420967,2633.32528 532.139384,2633.32528 C531.95544,2633.32528 531.754932,2633.30877 531.538732,2633.27573 C531.741855,2633.91029 532.115846,2634.43184 532.660705,2634.84126 C533.205564,2635.25068 533.821909,2635.46104 534.510611,2635.47408 C533.356381,2636.37637 532.040874,2636.82751 530.56496,2636.82751 C530.282505,2636.82751 530.027075,2636.81447 529.796926,2636.78926 C531.27284,2637.73762 532.900443,2638.21137 534.677991,2638.21137 C535.806068,2638.21137 536.866145,2638.03317 537.856481,2637.67677 C538.846817,2637.32038 539.69331,2636.84316 540.395088,2636.24424 C541.096867,2635.64532 541.70275,2634.95687 542.210994,2634.17889 C542.719239,2633.40091 543.098461,2632.58728 543.347788,2631.74063 C543.597116,2630.89311 543.721779,2630.04471 543.721779,2629.19458 C543.721779,2629.01117 543.718292,2628.87383 543.711318,2628.78255 C544.334637,2628.33054 544.866419,2627.78465 545.305794,2627.14314 Z" id="twitter"></path>
        </g>
    </g>
</svg>