<?xml version="1.0" encoding="UTF-8"?>
<svg width="578px" height="262px" viewBox="0 0 578 262" version="1.1" xmlns="http://www.w3.org/2000/svg" xmlns:xlink="http://www.w3.org/1999/xlink">
    <!-- Generator: Sketch 46.2 (44496) - http://www.bohemiancoding.com/sketch -->
    <title>background-dots</title>
    <desc>Created with Sketch.</desc>
    <defs></defs>
    <g id="Page-1" stroke="none" stroke-width="1" fill="none" fill-rule="evenodd">
        <g id="Website-desktop" transform="translate(-999.000000, -1177.000000)" fill="#DDDDDD">
            <g id="background-dots" transform="translate(999.000000, 1177.000000)">
                <circle id="Oval" cx="4.5" cy="4.5" r="4.5"></circle>
                <circle id="Oval" cx="48.5" cy="4.5" r="4.5"></circle>
                <circle id="Oval" cx="92.5" cy="4.5" r="4.5"></circle>
                <circle id="Oval" cx="135.5" cy="4.5" r="4.5"></circle>
                <circle id="Oval" cx="179.5" cy="4.5" r="4.5"></circle>
                <circle id="Oval" cx="223.5" cy="4.5" r="4.5"></circle>
                <circle id="Oval" cx="267.5" cy="4.5" r="4.5"></circle>
                <circle id="Oval" cx="311.5" cy="4.5" r="4.5"></circle>
                <circle id="Oval" cx="354.5" cy="4.5" r="4.5"></circle>
                <circle id="Oval" cx="398.5" cy="4.5" r="4.5"></circle>
                <circle id="Oval" cx="442.5" cy="4.5" r="4.5"></circle>
                <circle id="Oval" cx="486.5" cy="4.5" r="4.5"></circle>
                <circle id="Oval" cx="530.5" cy="4.5" r="4.5"></circle>
                <circle id="Oval" cx="573.5" cy="4.5" r="4.5"></circle>
                <circle id="Oval" cx="4.5" cy="130.5" r="4.5"></circle>
                <circle id="Oval" cx="48.5" cy="130.5" r="4.5"></circle>
                <circle id="Oval" cx="92.5" cy="130.5" r="4.5"></circle>
                <circle id="Oval" cx="135.5" cy="130.5" r="4.5"></circle>
                <circle id="Oval" cx="179.5" cy="130.5" r="4.5"></circle>
                <circle id="Oval" cx="223.5" cy="130.5" r="4.5"></circle>
                <circle id="Oval" cx="267.5" cy="130.5" r="4.5"></circle>
                <circle id="Oval" cx="311.5" cy="130.5" r="4.5"></circle>
                <circle id="Oval" cx="354.5" cy="130.5" r="4.5"></circle>
                <circle id="Oval" cx="398.5" cy="130.5" r="4.5"></circle>
                <circle id="Oval" cx="442.5" cy="130.5" r="4.5"></circle>
                <circle id="Oval" cx="486.5" cy="130.5" r="4.5"></circle>
                <circle id="Oval" cx="530.5" cy="130.5" r="4.5"></circle>
                <circle id="Oval" cx="573.5" cy="130.5" r="4.5"></circle>
                <circle id="Oval" cx="4.5" cy="46.5" r="4.5"></circle>
                <circle id="Oval" cx="48.5" cy="46.5" r="4.5"></circle>
                <circle id="Oval" cx="92.5" cy="46.5" r="4.5"></circle>
                <circle id="Oval" cx="135.5" cy="46.5" r="4.5"></circle>
                <circle id="Oval" cx="179.5" cy="46.5" r="4.5"></circle>
                <circle id="Oval" cx="223.5" cy="46.5" r="4.5"></circle>
                <circle id="Oval" cx="267.5" cy="46.5" r="4.5"></circle>
                <circle id="Oval" cx="311.5" cy="46.5" r="4.5"></circle>
                <circle id="Oval" cx="354.5" cy="46.5" r="4.5"></circle>
                <circle id="Oval" cx="398.5" cy="46.5" r="4.5"></circle>
                <circle id="Oval" cx="442.5" cy="46.5" r="4.5"></circle>
                <circle id="Oval" cx="486.5" cy="46.5" r="4.5"></circle>
                <circle id="Oval" cx="530.5" cy="46.5" r="4.5"></circle>
                <circle id="Oval" cx="573.5" cy="46.5" r="4.5"></circle>
                <circle id="Oval" cx="4.5" cy="172.5" r="4.5"></circle>
                <circle id="Oval" cx="48.5" cy="172.5" r="4.5"></circle>
                <circle id="Oval" cx="92.5" cy="172.5" r="4.5"></circle>
                <circle id="Oval" cx="135.5" cy="172.5" r="4.5"></circle>
                <circle id="Oval" cx="179.5" cy="172.5" r="4.5"></circle>
                <circle id="Oval" cx="223.5" cy="172.5" r="4.5"></circle>
                <circle id="Oval" cx="267.5" cy="172.5" r="4.5"></circle>
                <circle id="Oval" cx="311.5" cy="172.5" r="4.5"></circle>
                <circle id="Oval" cx="354.5" cy="172.5" r="4.5"></circle>
                <circle id="Oval" cx="398.5" cy="172.5" r="4.5"></circle>
                <circle id="Oval" cx="442.5" cy="172.5" r="4.5"></circle>
                <circle id="Oval" cx="486.5" cy="172.5" r="4.5"></circle>
                <circle id="Oval" cx="530.5" cy="172.5" r="4.5"></circle>
                <circle id="Oval" cx="573.5" cy="172.5" r="4.5"></circle>
                <circle id="Oval" cx="4.5" cy="88.5" r="4.5"></circle>
                <circle id="Oval" cx="48.5" cy="88.5" r="4.5"></circle>
                <circle id="Oval" cx="92.5" cy="88.5" r="4.5"></circle>
                <circle id="Oval" cx="135.5" cy="88.5" r="4.5"></circle>
                <circle id="Oval" cx="179.5" cy="88.5" r="4.5"></circle>
                <circle id="Oval" cx="223.5" cy="88.5" r="4.5"></circle>
                <circle id="Oval" cx="267.5" cy="88.5" r="4.5"></circle>
                <circle id="Oval" cx="311.5" cy="88.5" r="4.5"></circle>
                <circle id="Oval" cx="354.5" cy="88.5" r="4.5"></circle>
                <circle id="Oval" cx="398.5" cy="88.5" r="4.5"></circle>
                <circle id="Oval" cx="442.5" cy="88.5" r="4.5"></circle>
                <circle id="Oval" cx="486.5" cy="88.5" r="4.5"></circle>
                <circle id="Oval" cx="530.5" cy="88.5" r="4.5"></circle>
                <circle id="Oval" cx="573.5" cy="88.5" r="4.5"></circle>
                <circle id="Oval" cx="4.5" cy="214.5" r="4.5"></circle>
                <circle id="Oval" cx="48.5" cy="214.5" r="4.5"></circle>
                <circle id="Oval" cx="92.5" cy="214.5" r="4.5"></circle>
                <circle id="Oval" cx="135.5" cy="214.5" r="4.5"></circle>
                <circle id="Oval" cx="179.5" cy="214.5" r="4.5"></circle>
                <circle id="Oval" cx="223.5" cy="214.5" r="4.5"></circle>
                <circle id="Oval" cx="267.5" cy="214.5" r="4.5"></circle>
                <circle id="Oval" cx="311.5" cy="214.5" r="4.5"></circle>
                <circle id="Oval" cx="354.5" cy="214.5" r="4.5"></circle>
                <circle id="Oval" cx="398.5" cy="214.5" r="4.5"></circle>
                <circle id="Oval" cx="442.5" cy="214.5" r="4.5"></circle>
                <circle id="Oval" cx="486.5" cy="214.5" r="4.5"></circle>
                <circle id="Oval" cx="530.5" cy="214.5" r="4.5"></circle>
                <circle id="Oval" cx="573.5" cy="214.5" r="4.5"></circle>
                <circle id="Oval" cx="4.5" cy="257.5" r="4.5"></circle>
                <circle id="Oval" cx="48.5" cy="257.5" r="4.5"></circle>
                <circle id="Oval" cx="92.5" cy="257.5" r="4.5"></circle>
                <circle id="Oval" cx="135.5" cy="257.5" r="4.5"></circle>
                <circle id="Oval" cx="179.5" cy="257.5" r="4.5"></circle>
                <circle id="Oval" cx="223.5" cy="257.5" r="4.5"></circle>
                <circle id="Oval" cx="267.5" cy="257.5" r="4.5"></circle>
                <circle id="Oval" cx="311.5" cy="257.5" r="4.5"></circle>
                <circle id="Oval" cx="354.5" cy="257.5" r="4.5"></circle>
                <circle id="Oval" cx="398.5" cy="257.5" r="4.5"></circle>
                <circle id="Oval" cx="442.5" cy="257.5" r="4.5"></circle>
                <circle id="Oval" cx="486.5" cy="257.5" r="4.5"></circle>
                <circle id="Oval" cx="530.5" cy="257.5" r="4.5"></circle>
                <circle id="Oval" cx="573.5" cy="257.5" r="4.5"></circle>
            </g>
        </g>
    </g>
</svg>